sean_hairline.ufo
<glyph name="dollar" format="1">
  <advance width="520"/>
  <unicode hex="0024"/>
  <outline>
    <contour>
      <point x="255" y="58" type="line"/>
      <point x="233" y="58" type="line"/>
      <point x="233" y="-44" type="line"/>
      <point x="255" y="-44" type="line"/>
    </contour>
    <contour>
      <point x="267" y="672" type="line"/>
      <point x="267" y="774" type="line"/>
      <point x="245" y="774" type="line"/>
      <point x="245" y="672" type="line"/>
    </contour>
    <contour>
      <point x="71" y="97" type="line"/>
      <point x="129" y="62"/>
      <point x="175" y="46"/>
      <point x="243" y="46" type="curve" smooth="yes"/>
      <point x="353" y="46"/>
      <point x="434" y="93"/>
      <point x="434" y="194" type="curve" smooth="yes"/>
      <point x="434" y="292"/>
      <point x="365" y="337"/>
      <point x="274" y="381" type="curve" smooth="yes"/>
      <point x="190" y="421"/>
      <point x="117" y="452"/>
      <point x="117" y="542" type="curve" smooth="yes"/>
      <point x="117" y="619"/>
      <point x="174" y="660"/>
      <point x="256" y="660" type="curve" smooth="yes"/>
      <point x="319" y="660"/>
      <point x="361" y="645"/>
      <point x="415" y="613" type="curve"/>
      <point x="425" y="629" type="line"/>
      <point x="368" y="663"/>
      <point x="324" y="681"/>
      <point x="257" y="681" type="curve" smooth="yes"/>
      <point x="162" y="681"/>
      <point x="95" y="633"/>
      <point x="95" y="542" type="curve" smooth="yes"/>
      <point x="95" y="449"/>
      <point x="165" y="411"/>
      <point x="251" y="369" type="curve" smooth="yes"/>
      <point x="340" y="327"/>
      <point x="412" y="290"/>
      <point x="412" y="195" type="curve" smooth="yes"/>
      <point x="412" y="107"/>
      <point x="341" y="67"/>
      <point x="246" y="67" type="curve" smooth="yes"/>
      <point x="181" y="67"/>
      <point x="138" y="83"/>
      <point x="83" y="118" type="curve"/>
    </contour>
  </outline>
</glyph>
<glyph name="equal" format="1">
  <advance width="727"/>
  <unicode hex="003D"/>
  <outline>
    <contour>
      <point x="667" y="207" type="line"/>
      <point x="667" y="228" type="line"/>
      <point x="38" y="228" type="line"/>
      <point x="38" y="207" type="line"/>
    </contour>
    <contour>
      <point x="667" y="429" type="line"/>
      <point x="667" y="450" type="line"/>
      <point x="38" y="450" type="line"/>
      <point x="38" y="429" type="line"/>
    </contour>
  </outline>
</glyph>
<glyph name="K" format="1">
  <advance width="654"/>
  <unicode hex="004B"/>
  <outline>
    <contour>
      <point x="156" y="369" type="line"/>
      <point x="575" y="722" type="line"/>
      <point x="545" y="722" type="line"/>
      <point x="136" y="380" type="line"/>
    </contour>
    <contour>
      <point x="148" y="722" type="curve"/>
      <point x="126" y="722" type="line"/>
      <point x="126" y="0" type="line"/>
      <point x="148" y="0" type="line"/>
      <point x="148" y="0"/>
      <point x="148" y="722"/>
    </contour>
    <contour>
      <point x="136" y="380" type="line"/>
      <point x="569" y="0" type="line"/>
      <point x="598" y="0" type="line"/>
      <point x="157" y="391" type="line"/>
    </contour>
  </outline>
</glyph>
<glyph name="V" format="1">
  <advance width="618"/>
  <unicode hex="0056"/>
  <outline>
    <contour>
      <point x="575" y="722" type="line"/>
      <point x="297" y="0" type="line"/>
      <point x="322" y="0" type="line"/>
      <point x="599" y="722" type="line"/>
    </contour>
    <contour>
      <point x="315" y="0" type="line"/>
      <point x="33" y="722" type="line"/>
      <point x="9" y="722" type="line"/>
      <point x="291" y="0" type="line"/>
    </contour>
  </outline>
</glyph>
<glyph name="W" format="1">
  <advance width="879"/>
  <unicode hex="0057"/>
  <outline>
    <contour>
      <point x="252" y="0" type="line"/>
      <point x="455" y="722" type="line"/>
      <point x="430" y="722" type="line"/>
      <point x="230" y="0" type="line"/>
    </contour>
    <contour>
      <point x="437" y="722" type="line"/>
      <point x="620" y="0" type="line"/>
      <point x="642" y="0" type="line"/>
      <point x="461" y="722" type="line"/>
    </contour>
    <contour>
      <point x="252" y="0" type="line"/>
      <point x="72" y="722" type="line"/>
      <point x="48" y="722" type="line"/>
      <point x="230" y="0" type="line"/>
    </contour>
    <contour>
      <point x="620" y="0" type="line"/>
      <point x="642" y="0" type="line"/>
      <point x="832" y="722" type="line"/>
      <point x="808" y="722" type="line"/>
    </contour>
  </outline>
</glyph>
<glyph name="underscore" format="1">
  <advance width="857"/>
  <unicode hex="005F"/>
  <outline>
    <contour>
      <point x="85" y="-210" type="line"/>
      <point x="767" y="-210" type="line"/>
      <point x="767" y="-188" type="line"/>
      <point x="85" y="-188" type="line"/>
    </contour>
  </outline>
</glyph>
<glyph name="grave" format="1">
  <advance width="400"/>
  <unicode hex="0060"/>
  <outline>
    <contour>
      <point x="293" y="644" type="line"/>
      <point x="308" y="656" type="line"/>
      <point x="157" y="846" type="line"/>
      <point x="141" y="835" type="line"/>
    </contour>
  </outline>
</glyph>
<glyph name="c" format="1">
  <advance width="545"/>
  <unicode hex="0063"/>
  <outline>
    <contour>
      <point x="97" y="267" type="curve" smooth="yes"/>
      <point x="97" y="120"/>
      <point x="166" y="-8"/>
      <point x="319" y="-8" type="curve" smooth="yes"/>
      <point x="384" y="-8"/>
      <point x="444" y="22"/>
      <point x="484" y="74" type="curve"/>
      <point x="469" y="89" type="line"/>
      <point x="433" y="42"/>
      <point x="378" y="15"/>
      <point x="321" y="15" type="curve" smooth="yes"/>
      <point x="180" y="15"/>
      <point x="119" y="130"/>
      <point x="119" y="267" type="curve" smooth="yes"/>
      <point x="119" y="402"/>
      <point x="185" y="519"/>
      <point x="327" y="519" type="curve" smooth="yes"/>
      <point x="378" y="519"/>
      <point x="422" y="501"/>
      <point x="459" y="466" type="curve"/>
      <point x="471" y="483" type="line"/>
      <point x="430" y="521"/>
      <point x="382" y="540"/>
      <point x="327" y="540" type="curve" smooth="yes"/>
      <point x="174" y="540"/>
      <point x="97" y="417"/>
    </contour>
  </outline>
</glyph>
<glyph name="k" format="1">
  <advance width="586"/>
  <unicode hex="006B"/>
  <outline>
    <contour>
      <point x="118" y="0" type="line"/>
      <point x="118" y="800" type="line"/>
      <point x="140" y="800" type="line"/>
      <point x="140" y="295" type="line"/>
      <point x="485" y="545" type="line"/>
      <point x="514" y="545" type="line"/>
      <point x="162" y="287" type="line"/>
      <point x="540" y="0" type="line"/>
      <point x="511" y="0" type="line"/>
      <point x="140" y="279" type="line"/>
      <point x="140" y="0" type="line"/>
    </contour>
  </outline>
</glyph>
<glyph name="v" format="1">
  <advance width="581"/>
  <unicode hex="0076"/>
  <outline>
    <contour>
      <point x="284" y="0" type="line"/>
      <point x="80" y="533" type="line"/>
      <point x="58" y="533" type="line"/>
      <point x="264" y="0" type="line"/>
    </contour>
    <contour>
      <point x="269" y="0" type="curve"/>
      <point x="291" y="0" type="line"/>
      <point x="511" y="533" type="line"/>
      <point x="489" y="533" type="line"/>
      <point x="489" y="533"/>
      <point x="269" y="0"/>
    </contour>
  </outline>
</glyph>
<glyph name="y" format="1">
  <advance width="490"/>
  <unicode hex="0079"/>
  <outline>
    <contour>
      <point x="258" y="77" type="line"/>
      <point x="55" y="533" type="line"/>
      <point x="30" y="533" type="line"/>
      <point x="236" y="73" type="line"/>
    </contour>
    <contour>
      <point x="53" y="-300" type="line"/>
      <point x="78" y="-300" type="line"/>
      <point x="484" y="533" type="line"/>
      <point x="460" y="533" type="line"/>
    </contour>
  </outline>
</glyph>
<glyph name="yen" format="1">
  <advance width="509"/>
  <unicode hex="00A5"/>
  <outline>
    <contour>
      <point x="476" y="370" type="line"/>
      <point x="265" y="370" type="line"/>
      <point x="265" y="348" type="line"/>
      <point x="476" y="348" type="line"/>
    </contour>
    <contour>
      <point x="236" y="370" type="line"/>
      <point x="29" y="370" type="line"/>
      <point x="29" y="348" type="line"/>
      <point x="236" y="348" type="line"/>
    </contour>
    <contour>
      <point x="478" y="229" type="line"/>
      <point x="478" y="251" type="line"/>
      <point x="29" y="251" type="line"/>
      <point x="29" y="229" type="line"/>
    </contour>
    <component base="Y" xOffset="7"/>
  </outline>
</glyph>
<glyph name="registered" format="1">
  <advance width="532"/>
  <unicode hex="00AE"/>
  <outline>
    <contour>
      <point x="64" y="469" type="curve" smooth="yes"/>
      <point x="64" y="586"/>
      <point x="148" y="664"/>
      <point x="266" y="664" type="curve" smooth="yes"/>
      <point x="387" y="664"/>
      <point x="477" y="590"/>
      <point x="477" y="473" type="curve" smooth="yes"/>
      <point x="477" y="350"/>
      <point x="391" y="264"/>
      <point x="268" y="264" type="curve" smooth="yes"/>
      <point x="147" y="264"/>
      <point x="64" y="348"/>
    </contour>
    <contour>
      <point x="43" y="468" type="curve" smooth="yes"/>
      <point x="43" y="335"/>
      <point x="132" y="241"/>
      <point x="264" y="241" type="curve" smooth="yes"/>
      <point x="402" y="241"/>
      <point x="498" y="337"/>
      <point x="498" y="475" type="curve" smooth="yes"/>
      <point x="498" y="603"/>
      <point x="400" y="685"/>
      <point x="268" y="685" type="curve" smooth="yes"/>
      <point x="137" y="685"/>
      <point x="43" y="598"/>
    </contour>
    <contour>
      <point x="196" y="572" type="line"/>
      <point x="244" y="572" type="line" smooth="yes"/>
      <point x="292" y="572"/>
      <point x="335" y="559"/>
      <point x="335" y="517" type="curve" smooth="yes"/>
      <point x="335" y="479"/>
      <point x="294" y="469"/>
      <point x="250" y="469" type="curve" smooth="yes"/>
      <point x="196" y="469" type="line"/>
      <point x="196" y="447" type="line"/>
      <point x="247" y="447" type="line" smooth="yes"/>
      <point x="306" y="447"/>
      <point x="357" y="468"/>
      <point x="357" y="520" type="curve" smooth="yes"/>
      <point x="357" y="572"/>
      <point x="306" y="593"/>
      <point x="248" y="593" type="curve" smooth="yes"/>
      <point x="196" y="593" type="line"/>
    </contour>
    <contour>
      <point x="183" y="593" type="line"/>
      <point x="183" y="340" type="line"/>
      <point x="205" y="340" type="line"/>
      <point x="205" y="593" type="line"/>
    </contour>
    <contour>
      <point x="266" y="462" type="line"/>
      <point x="352" y="340" type="line"/>
      <point x="379" y="340" type="line"/>
      <point x="290" y="467" type="line"/>
    </contour>
  </outline>
</glyph>
<glyph name="circumflex" format="1">
  <advance width="355"/>
  <unicode hex="02C6"/>
  <outline>
    <contour>
      <point x="168" y="779" type="line"/>
      <point x="288" y="608" type="line"/>
      <point x="310" y="608" type="line"/>
      <point x="190" y="779" type="line"/>
    </contour>
    <contour>
      <point x="190" y="779" type="line"/>
      <point x="168" y="779" type="line"/>
      <point x="44" y="598" type="line"/>
      <point x="66" y="598" type="line"/>
    </contour>
  </outline>
</glyph>
<glyph name="v_uu" format="1">
  <advance width="849"/>
  <unicode hex="090A"/>
  <outline>
    <contour>
      <point x="431" y="275" type="line"/>
      <point x="452.513087556" y="355.440240426"/>
      <point x="513.0" y="409.0"/>
      <point x="600" y="409" type="curve" smooth="yes"/>
      <point x="694.0" y="409.0"/>
      <point x="760.93244088" y="344.945202524"/>
      <point x="762" y="251" type="curve" smooth="yes"/>
      <point x="763.005847382" y="149.409414452"/>
      <point x="691.0" y="79.0"/>
      <point x="589" y="79" type="curve"/>
      <point x="589" y="57" type="line"/>
      <point x="703" y="57"/>
      <point x="784" y="136"/>
      <point x="784" y="249" type="curve" smooth="yes"/>
      <point x="784.0" y="355.941176471"/>
      <point x="706.0" y="429.0"/>
      <point x="598" y="429" type="curve" smooth="yes"/>
      <point x="504.505376344" y="429.0"/>
      <point x="437.308327619" y="373.091993649"/>
      <point x="413" y="287" type="curve"/>
    </contour>
    <component base="component_6" xOffset="566"/>
    <component base="component_6" xOffset="336"/>
    <component base="v_u"/>
  </outline>
</glyph>
<glyph name="c_kha" format="1">
  <advance width="868"/>
  <unicode hex="0916"/>
  <outline>
    <contour>
      <point x="727" y="462" type="curve"/>
      <point x="743" y="478" type="line"/>
      <point x="702" y="521"/>
      <point x="664" y="548"/>
      <point x="605" y="548" type="curve" smooth="yes"/>
      <point x="527" y="548"/>
      <point x="478" y="496"/>
      <point x="478" y="417" type="curve" smooth="yes"/>
      <point x="478" y="335"/>
      <point x="531" y="282"/>
      <point x="613" y="282" type="curve" smooth="yes"/>
      <point x="669" y="282"/>
      <point x="705" y="308"/>
      <point x="744" y="349" type="curve"/>
      <point x="728" y="363" type="line"/>
      <point x="694" y="326"/>
      <point x="663" y="304"/>
      <point x="613" y="304" type="curve" smooth="yes"/>
      <point x="544" y="304"/>
      <point x="500" y="348"/>
      <point x="500" y="417" type="curve" smooth="yes"/>
      <point x="500" y="483"/>
      <point x="540" y="526"/>
      <point x="605" y="526" type="curve" smooth="yes"/>
      <point x="658" y="526"/>
      <point x="691" y="501"/>
    </contour>
    <contour>
      <point x="273" y="714" type="curve"/>
      <point x="255" y="700" type="line"/>
      <point x="322" y="655"/>
      <point x="357" y="602"/>
      <point x="357" y="522" type="curve" smooth="yes"/>
      <point x="357" y="447"/>
      <point x="324" y="391"/>
      <point x="255" y="391" type="curve" smooth="yes"/>
      <point x="192" y="391"/>
      <point x="157" y="432"/>
      <point x="141" y="495" type="curve"/>
      <point x="119" y="491" type="line"/>
      <point x="119" y="244"/>
      <point x="256" y="72"/>
      <point x="495" y="72" type="curve" smooth="yes"/>
      <point x="595" y="72"/>
      <point x="671" y="85"/>
      <point x="745" y="152" type="curve"/>
      <point x="731" y="168" type="line"/>
      <point x="661" y="105"/>
      <point x="589" y="94"/>
      <point x="495" y="94" type="curve" smooth="yes"/>
      <point x="269" y="94"/>
      <point x="141" y="258"/>
      <point x="141" y="493" type="curve"/>
      <point x="119" y="489" type="line"/>
      <point x="138" y="416"/>
      <point x="181" y="369"/>
      <point x="255" y="369" type="curve" smooth="yes"/>
      <point x="337" y="369"/>
      <point x="379" y="434"/>
      <point x="379" y="522" type="curve" smooth="yes"/>
      <point x="379" y="607"/>
      <point x="343" y="664"/>
    </contour>
    <component base="component_6" xOffset="303"/>
    <component base="kana" xOffset="595"/>
    <component base="component_6"/>
  </outline>
</glyph>
<glyph name="c_nga" format="1">
  <advance width="561"/>
  <unicode hex="0919"/>
  <outline>
    <component base="component_5" xOffset="145" yOffset="421"/>
    <component base="c_dda"/>
    <contour>
      <point x="313" y="45" type="move" name="DVAnchor0"/>
    </contour>
    <contour>
      <point x="448" y="660" type="move" name="DVAnchor3"/>
    </contour>
  </outline>
</glyph>
<glyph name="c_ca" format="1">
  <advance width="683"/>
  <unicode hex="091A"/>
  <outline>
    <contour>
      <point x="67" y="433" type="line"/>
      <point x="406" y="433" type="line"/>
      <point x="406" y="455" type="line"/>
      <point x="67" y="455" type="line"/>
    </contour>
    <contour>
      <point x="433" y="700" type="line"/>
      <point x="433" y="722" type="line"/>
      <point x="-10" y="722" type="line"/>
      <point x="-10" y="700" type="line"/>
    </contour>
    <contour>
      <point x="406" y="433" type="curve"/>
      <point x="406" y="450" type="line"/>
      <point x="265" y="450"/>
      <point x="135" y="385"/>
      <point x="135" y="254" type="curve" smooth="yes"/>
      <point x="135" y="149"/>
      <point x="236.0" y="96.0"/>
      <point x="342" y="96" type="curve" smooth="yes"/>
      <point x="439" y="96"/>
      <point x="527" y="152"/>
      <point x="562" y="242" type="curve"/>
      <point x="543" y="255" type="line"/>
      <point x="511" y="171"/>
      <point x="430" y="117"/>
      <point x="340" y="117" type="curve" smooth="yes"/>
      <point x="249.0" y="117.0"/>
      <point x="158" y="166"/>
      <point x="158" y="253" type="curve" smooth="yes"/>
      <point x="158" y="373"/>
      <point x="280.0" y="433.0"/>
    </contour>
    <component base="kana" xOffset="410"/>
  </outline>
</glyph>
<glyph name="c_cha" format="1">
  <advance width="662"/>
  <unicode hex="091B"/>
  <outline>
    <contour>
      <point x="522" y="700" type="line"/>
      <point x="522" y="461" type="line"/>
      <point x="544" y="461" type="line"/>
      <point x="544" y="700" type="line"/>
    </contour>
    <contour>
      <point x="270" y="365" type="curve"/>
      <point x="270" y="382" type="line"/>
      <point x="147.956896552" y="382.0"/>
      <point x="28.0" y="320.0"/>
      <point x="28" y="202" type="curve" smooth="yes"/>
      <point x="28.0" y="75.0"/>
      <point x="154.107744108" y="-13.0"/>
      <point x="335" y="-13" type="curve" smooth="yes"/>
      <point x="508.1875" y="-13.0"/>
      <point x="675" y="63"/>
      <point x="675" y="286" type="curve"/>
      <point x="675" y="383"/>
      <point x="620" y="475"/>
      <point x="531" y="475" type="curve"/>
      <point x="483" y="475"/>
      <point x="432" y="440"/>
      <point x="432" y="391" type="curve"/>
      <point x="432" y="295"/>
      <point x="541" y="270"/>
      <point x="658" y="287" type="curve"/>
      <point x="658" y="309" type="line"/>
      <point x="552" y="293"/>
      <point x="453" y="310"/>
      <point x="453" y="391" type="curve"/>
      <point x="453" y="431"/>
      <point x="491" y="453"/>
      <point x="531" y="453" type="curve"/>
      <point x="608" y="453"/>
      <point x="653" y="371"/>
      <point x="653" y="286" type="curve"/>
      <point x="653" y="71"/>
      <point x="485.533333333" y="8.0"/>
      <point x="333" y="8" type="curve" smooth="yes"/>
      <point x="170.270072993" y="8.0"/>
      <point x="49.0" y="92.0"/>
      <point x="49" y="199" type="curve" smooth="yes"/>
      <point x="49.0" y="308.0"/>
      <point x="158.976303318" y="365.0"/>
    </contour>
    <contour>
      <point x="270" y="386" type="line"/>
      <point x="172.866972477" y="386.0"/>
      <point x="96" y="428"/>
      <point x="95" y="530" type="curve" smooth="yes"/>
      <point x="94" y="641"/>
      <point x="191.0" y="702.0"/>
      <point x="327" y="702" type="curve"/>
      <point x="320" y="716" type="line"/>
      <point x="176.0" y="716.0"/>
      <point x="73" y="651"/>
      <point x="73" y="532" type="curve" smooth="yes"/>
      <point x="73" y="418"/>
      <point x="159.1875" y="368.0"/>
      <point x="270" y="368" type="curve"/>
    </contour>
    <contour>
      <point x="-10" y="700" type="line"/>
      <point x="719" y="700" type="line"/>
      <point x="719" y="722" type="line"/>
      <point x="-10" y="722" type="line"/>
    </contour>
  </outline>
</glyph>
<glyph name="c_ja" format="1">
  <advance width="683"/>
  <unicode hex="091C"/>
  <outline>
    <contour>
      <point x="213" y="431" type="line"/>
      <point x="353" y="431"/>
      <point x="463" y="384"/>
      <point x="463" y="259" type="curve" smooth="yes"/>
      <point x="463" y="166"/>
      <point x="389" y="131"/>
      <point x="279" y="131" type="curve" smooth="yes"/>
      <point x="179" y="131"/>
      <point x="111" y="176"/>
      <point x="76" y="269" type="curve"/>
      <point x="57" y="256" type="line"/>
      <point x="96" y="157"/>
      <point x="170" y="110"/>
      <point x="277" y="110" type="curve" smooth="yes"/>
      <point x="393" y="110"/>
      <point x="484" y="148"/>
      <point x="484" y="262" type="curve" smooth="yes"/>
      <point x="484" y="397"/>
      <point x="364" y="448"/>
      <point x="213" y="448" type="curve"/>
    </contour>
    <contour>
      <point x="552" y="431" type="line"/>
      <point x="552" y="453" type="line"/>
      <point x="213" y="453" type="line"/>
      <point x="213" y="431" type="line"/>
    </contour>
    <contour>
      <point x="529" y="700" type="line"/>
      <point x="529" y="722" type="line"/>
      <point x="-10" y="722" type="line"/>
      <point x="-10" y="700" type="line"/>
    </contour>
    <component base="kana" xOffset="410"/>
  </outline>
</glyph>
<glyph name="c_jha" format="1">
  <advance width="781"/>
  <unicode hex="091D"/>
  <outline>
    <contour>
      <point x="433" y="300" type="move"/>
      <point x="526" y="291"/>
      <point x="577" y="294"/>
      <point x="653" y="329" type="curve"/>
      <point x="650" y="351" type="line"/>
      <point x="530" y="287"/>
      <point x="443" y="327"/>
      <point x="359" y="327" type="curve" smooth="yes"/>
    </contour>
    <component base="v_i"/>
    <component base="kana" xOffset="508"/>
  </outline>
</glyph>
<glyph name="c_ttha" format="1">
  <advance width="549"/>
  <unicode hex="0920"/>
  <outline>
    <contour>
      <point x="559" y="700" type="line"/>
      <point x="559" y="722" type="line"/>
      <point x="-10" y="722" type="line"/>
      <point x="-10" y="700" type="line"/>
    </contour>
    <contour>
      <point x="336" y="702" type="line"/>
      <point x="336" y="513" type="line"/>
      <point x="358" y="513" type="line"/>
      <point x="358" y="702" type="line"/>
    </contour>
    <contour>
      <point x="343" y="535" type="curve"/>
      <point x="196" y="517"/>
      <point x="66" y="434"/>
      <point x="66" y="294" type="curve" smooth="yes"/>
      <point x="66" y="163"/>
      <point x="172" y="65"/>
      <point x="305" y="65" type="curve" smooth="yes"/>
      <point x="427" y="65"/>
      <point x="536" y="146"/>
      <point x="536" y="284" type="curve"/>
      <point x="536" y="397"/>
      <point x="466" y="492"/>
    </contour>
    <contour>
      <point x="514" y="284" type="curve"/>
      <point x="514" y="157"/>
      <point x="415" y="87"/>
      <point x="305" y="87" type="curve" smooth="yes"/>
      <point x="184" y="87"/>
      <point x="88" y="174"/>
      <point x="88" y="294" type="curve" smooth="yes"/>
      <point x="88" y="423"/>
      <point x="209" y="495"/>
      <point x="343" y="513" type="curve"/>
      <point x="455" y="471"/>
      <point x="514" y="384"/>
    </contour>
  </outline>
</glyph>
<glyph name="c_ttha" format="1">
  <advance width="603"/>
  <unicode hex="0920"/>
  <outline>
    <contour>
      <point x="613" y="700" type="line"/>
      <point x="613" y="722" type="line"/>
      <point x="-10" y="724" type="line"/>
      <point x="-10" y="702" type="line"/>
    </contour>
    <contour>
      <point x="390" y="702" type="line"/>
      <point x="390" y="513" type="line"/>
      <point x="412" y="513" type="line"/>
      <point x="412" y="702" type="line"/>
    </contour>
    <contour>
      <point x="397" y="535" type="curve"/>
      <point x="209" y="512"/>
      <point x="58" y="411"/>
      <point x="58" y="248" type="curve" smooth="yes"/>
      <point x="58" y="105"/>
      <point x="173" y="-15"/>
      <point x="359" y="-15" type="curve" smooth="yes"/>
      <point x="516" y="-15"/>
      <point x="596" y="105"/>
      <point x="596" y="238" type="curve"/>
      <point x="596" y="372"/>
      <point x="534" y="488"/>
    </contour>
    <contour>
      <point x="574" y="238" type="curve"/>
      <point x="574" y="117"/>
      <point x="504" y="7"/>
      <point x="359" y="7" type="curve" smooth="yes"/>
      <point x="185" y="7"/>
      <point x="80" y="117"/>
      <point x="80" y="248" type="curve" smooth="yes"/>
      <point x="80" y="398"/>
      <point x="222" y="489"/>
      <point x="397" y="513" type="curve"/>
      <point x="523" y="466"/>
      <point x="574" y="361"/>
    </contour>
  </outline>
</glyph>
<glyph name="c_dha" format="1">
  <advance width="661"/>
  <unicode hex="0927"/>
  <outline>
    <contour>
      <point x="285" y="525" type="line"/>
      <point x="323" y="538"/>
      <point x="338" y="569"/>
      <point x="338" y="610" type="curve" smooth="yes"/>
      <point x="338" y="671"/>
      <point x="290" y="701"/>
      <point x="225.0" y="701.0" type="curve" smooth="yes"/>
      <point x="153" y="701"/>
      <point x="106" y="658"/>
      <point x="105" y="587" type="curve" smooth="yes"/>
      <point x="104.068488051" y="477.081590035"/>
      <point x="220.0" y="451.0"/>
      <point x="357" y="451" type="curve"/>
      <point x="357" y="433" type="line"/>
      <point x="208.0" y="433.0"/>
      <point x="83.0" y="463.975460123"/>
      <point x="83" y="586" type="curve" smooth="yes"/>
      <point x="83" y="670"/>
      <point x="141" y="721"/>
      <point x="227.0" y="721.0" type="curve" smooth="yes"/>
      <point x="303" y="721"/>
      <point x="358" y="683"/>
      <point x="358" y="612" type="curve" smooth="yes"/>
      <point x="358" y="562"/>
      <point x="340" y="525"/>
      <point x="294" y="509" type="curve"/>
    </contour>
    <contour>
      <point x="670" y="700" type="line"/>
      <point x="519" y="700" type="line"/>
      <point x="519" y="722" type="line"/>
      <point x="670" y="722" type="line"/>
    </contour>
    <contour>
      <point x="357" y="433" type="line"/>
      <point x="212.815384615" y="433.0"/>
      <point x="93.9876559595" y="402.38293069"/>
      <point x="93" y="273" type="curve" smooth="yes"/>
      <point x="91.9858150312" y="170.567318147"/>
      <point x="181.74" y="130.0"/>
      <point x="297" y="130" type="curve" smooth="yes"/>
      <point x="410" y="130"/>
      <point x="481" y="187"/>
      <point x="524" y="293" type="curve"/>
      <point x="538" y="277" type="line"/>
      <point x="494" y="165"/>
      <point x="415" y="108"/>
      <point x="295" y="108" type="curve" smooth="yes"/>
      <point x="167.727272727" y="108.0"/>
      <point x="71.0" y="156.596273292"/>
      <point x="71" y="271" type="curve" smooth="yes"/>
      <point x="71.0" y="413.417582418"/>
      <point x="199.80141844" y="451.0"/>
      <point x="357" y="451" type="curve"/>
    </contour>
    <contour>
      <point x="519" y="710" type="line"/>
      <point x="541" y="710" type="line"/>
      <point x="541" y="0" type="line"/>
      <point x="519" y="0" type="line"/>
    </contour>
    <contour>
      <point x="505" y="660" type="move" name="DVAnchor3"/>
    </contour>
  </outline>
</glyph>
<glyph name="c_pha" format="1">
  <advance width="921"/>
  <unicode hex="092B"/>
  <outline>
    <contour>
      <point x="514" y="304" type="line"/>
      <point x="539" y="394"/>
      <point x="605" y="452"/>
      <point x="697" y="452" type="curve" smooth="yes"/>
      <point x="796" y="452"/>
      <point x="872" y="393"/>
      <point x="872" y="298" type="curve" smooth="yes"/>
      <point x="872" y="204"/>
      <point x="806" y="138"/>
      <point x="712" y="138" type="curve" smooth="yes"/>
      <point x="663" y="138"/>
      <point x="622" y="148"/>
      <point x="585" y="179" type="curve"/>
      <point x="577" y="161" type="line"/>
      <point x="618" y="129"/>
      <point x="660" y="119"/>
      <point x="712" y="119" type="curve" smooth="yes"/>
      <point x="818" y="119"/>
      <point x="893" y="192"/>
      <point x="893" y="297" type="curve" smooth="yes"/>
      <point x="893" y="404"/>
      <point x="808" y="473"/>
      <point x="697" y="473" type="curve" smooth="yes"/>
      <point x="594" y="473"/>
      <point x="522" y="406"/>
      <point x="497" y="304" type="curve"/>
    </contour>
    <contour>
      <point x="931" y="700" type="line"/>
      <point x="931" y="722" type="line"/>
      <point x="-10" y="722" type="line"/>
      <point x="-10" y="700" type="line"/>
    </contour>
    <component base="c_pa" xOffset="7"/>
    <contour>
      <point x="545" y="0" type="move" name="DVAnchor0"/>
    </contour>
    <contour>
      <point x="494" y="660" type="move" name="DVAnchor3"/>
    </contour>
  </outline>
</glyph>
<glyph name="c_bha" format="1">
  <advance width="649"/>
  <unicode hex="092D"/>
  <outline>
    <contour>
      <point x="249" y="606" type="curve"/>
      <point x="249" y="281" type="line"/>
      <point x="249" y="245"/>
      <point x="232" y="218"/>
      <point x="198" y="218" type="curve" smooth="yes"/>
      <point x="169" y="218"/>
      <point x="148" y="231"/>
      <point x="148" y="258" type="curve" smooth="yes"/>
      <point x="148" y="285"/>
      <point x="167" y="302"/>
      <point x="195" y="302" type="curve"/>
      <point x="522" y="302" type="line"/>
      <point x="522" y="322" type="line"/>
      <point x="196" y="322" type="line"/>
      <point x="155" y="322"/>
      <point x="127" y="297"/>
      <point x="127" y="257" type="curve" smooth="yes"/>
      <point x="127" y="219"/>
      <point x="156" y="198"/>
      <point x="197" y="198" type="curve" smooth="yes"/>
      <point x="243" y="198"/>
      <point x="269" y="232"/>
      <point x="269" y="281" type="curve"/>
      <point x="269" y="606" type="line"/>
      <point x="269" y="681"/>
      <point x="225" y="731"/>
      <point x="152" y="731" type="curve" smooth="yes"/>
      <point x="79" y="731"/>
      <point x="30" y="687"/>
      <point x="29" y="615" type="curve" smooth="yes"/>
      <point x="29" y="550"/>
      <point x="64" y="507"/>
      <point x="128" y="490" type="curve"/>
      <point x="133" y="510" type="line"/>
      <point x="80" y="522"/>
      <point x="51" y="559"/>
      <point x="51" y="614" type="curve" smooth="yes"/>
      <point x="52" y="674"/>
      <point x="91" y="711"/>
      <point x="151" y="711" type="curve" smooth="yes"/>
      <point x="212" y="711"/>
      <point x="249" y="669"/>
    </contour>
    <component base="kana" xOffset="376"/>
  </outline>
</glyph>
<glyph name="c_ra" format="1">
  <advance width="423"/>
  <unicode hex="0930"/>
  <outline>
    <contour>
      <point x="433" y="700" type="line"/>
      <point x="433" y="722" type="line"/>
      <point x="-10" y="722" type="line"/>
      <point x="-10" y="700" type="line"/>
    </contour>
    <contour>
      <point x="263" y="718" type="curve"/>
      <point x="247" y="702" type="line"/>
      <point x="313" y="641"/>
      <point x="374" y="568"/>
      <point x="374" y="479" type="curve" smooth="yes"/>
      <point x="374.0" y="399.0"/>
      <point x="319.166666667" y="325.0"/>
      <point x="234" y="325" type="curve" smooth="yes"/>
      <point x="185.321167883" y="325.0"/>
      <point x="145.024694356" y="349.715192684"/>
      <point x="117" y="399" type="curve"/>
      <point x="109" y="415" type="line"/>
      <point x="90" y="406" type="line"/>
      <point x="90" y="406"/>
      <point x="259" y="2"/>
      <point x="259" y="2" type="curve"/>
      <point x="279" y="12" type="line"/>
      <point x="109" y="414" type="line"/>
      <point x="92" y="406" type="line"/>
      <point x="113.750562253" y="339.759651321"/>
      <point x="170.888888889" y="303.0"/>
      <point x="234" y="303" type="curve" smooth="yes"/>
      <point x="330.971830986" y="303.0"/>
      <point x="396.0" y="387.0"/>
      <point x="396" y="479" type="curve" smooth="yes"/>
      <point x="396" y="574"/>
      <point x="332" y="652"/>
    </contour>
  </outline>
</glyph>
<glyph name="c_lla" format="1">
  <advance width="698"/>
  <unicode hex="0933"/>
  <outline>
    <contour>
      <point x="733" y="700" type="line"/>
      <point x="733" y="722" type="line"/>
      <point x="-10" y="722" type="line"/>
      <point x="-10" y="700" type="line"/>
      <point x="536" y="700" type="line"/>
      <point x="536" y="433" type="line"/>
      <point x="558" y="433" type="line"/>
      <point x="558" y="700" type="line"/>
    </contour>
    <contour>
      <point x="201" y="58" type="curve"/>
      <point x="96.0" y="58.0"/>
      <point x="28.0" y="145.111111111"/>
      <point x="28" y="254" type="curve" smooth="yes"/>
      <point x="28.0" y="346.803468208"/>
      <point x="91" y="423"/>
      <point x="193" y="423" type="curve" smooth="yes"/>
      <point x="270" y="423"/>
      <point x="335" y="395"/>
      <point x="388" y="342" type="curve"/>
      <point x="398" y="358" type="line"/>
      <point x="343" y="414"/>
      <point x="276" y="443"/>
      <point x="195" y="443" type="curve" smooth="yes"/>
      <point x="80" y="443"/>
      <point x="7.0" y="357.784615385"/>
      <point x="7" y="252" type="curve" smooth="yes"/>
      <point x="7.0" y="132.341991342"/>
      <point x="85.0" y="41.0"/>
      <point x="201" y="41" type="curve"/>
      <point x="448.0" y="41.0"/>
      <point x="277" y="418"/>
      <point x="543" y="418" type="curve" smooth="yes"/>
      <point x="638" y="418"/>
      <point x="684.0" y="334.868131868"/>
      <point x="684" y="240" type="curve"/>
      <point x="684" y="130"/>
      <point x="606" y="51"/>
      <point x="497" y="51" type="curve" smooth="yes"/>
      <point x="424.183544304" y="51.0"/>
      <point x="366" y="85"/>
      <point x="320" y="128" type="curve"/>
      <point x="306" y="105" type="line"/>
      <point x="356" y="61"/>
      <point x="420.377906977" y="29.0"/>
      <point x="497" y="29" type="curve" smooth="yes"/>
      <point x="619" y="29"/>
      <point x="706" y="118"/>
      <point x="706" y="240" type="curve"/>
      <point x="706.0" y="347.843137255"/>
      <point x="650" y="440"/>
      <point x="543" y="440" type="curve" smooth="yes"/>
      <point x="267" y="440"/>
      <point x="422.0" y="58.0"/>
    </contour>
  </outline>
</glyph>
<glyph name="c_sa" format="1">
  <advance width="702"/>
  <unicode hex="0938"/>
  <outline>
    <contour>
      <point x="311" y="323" type="line"/>
      <point x="406" y="284"/>
      <point x="492" y="288"/>
      <point x="576" y="332" type="curve"/>
      <point x="573" y="354" type="line"/>
      <point x="487" y="306"/>
      <point x="411" y="305"/>
      <point x="320" y="340" type="curve"/>
    </contour>
    <component base="c_ra"/>
    <component base="kana" xOffset="429"/>
  </outline>
</glyph>
<glyph name="c_ha" format="1">
  <advance width="466"/>
  <unicode hex="0939"/>
  <outline>
    <contour>
      <point x="151" y="289" type="move"/>
      <point x="104" y="324"/>
      <point x="69" y="357"/>
      <point x="69" y="415" type="curve"/>
      <point x="69" y="488"/>
      <point x="130" y="521"/>
      <point x="210" y="521" type="curve"/>
      <point x="407" y="521" type="line"/>
      <point x="407" y="541" type="line"/>
      <point x="213" y="541" type="line"/>
      <point x="119" y="541"/>
      <point x="47" y="503"/>
      <point x="47" y="417" type="curve"/>
      <point x="47" y="347"/>
      <point x="85" y="305"/>
      <point x="145" y="267" type="curve"/>
    </contour>
    <contour>
      <point x="395" y="711" type="line"/>
      <point x="395" y="522" type="line"/>
      <point x="417" y="522" type="line"/>
      <point x="417" y="711" type="line"/>
    </contour>
    <contour>
      <point x="571" y="700" type="line"/>
      <point x="571" y="722" type="line"/>
      <point x="-10" y="722" type="line"/>
      <point x="-10" y="700" type="line"/>
    </contour>
    <contour>
      <point x="408" y="147" type="curve"/>
      <point x="408" y="111"/>
      <point x="388" y="69"/>
      <point x="358" y="50" type="curve"/>
      <point x="375" y="35" type="line"/>
      <point x="408" y="59"/>
      <point x="430" y="106"/>
      <point x="430" y="147" type="curve"/>
      <point x="430" y="243"/>
      <point x="335" y="308"/>
      <point x="234" y="308" type="curve" smooth="yes"/>
      <point x="128" y="308"/>
      <point x="37" y="232"/>
      <point x="37" y="118" type="curve" smooth="yes"/>
      <point x="37" y="-4"/>
      <point x="152" y="-80"/>
      <point x="283" y="-79" type="curve"/>
      <point x="290" y="-61" type="line"/>
      <point x="167" y="-62"/>
      <point x="58" y="5"/>
      <point x="58" y="118" type="curve" smooth="yes"/>
      <point x="58" y="220"/>
      <point x="140" y="287"/>
      <point x="234" y="287" type="curve" smooth="yes"/>
      <point x="323" y="287"/>
      <point x="408" y="231"/>
    </contour>
  </outline>
</glyph>
<glyph name="c_ha" format="1">
  <advance width="466"/>
  <unicode hex="0939"/>
  <outline>
    <contour>
      <point x="159" y="284" type="move"/>
      <point x="112" y="319"/>
      <point x="69" y="357"/>
      <point x="69" y="415" type="curve"/>
      <point x="69" y="484"/>
      <point x="135" y="521"/>
      <point x="210" y="521" type="curve"/>
      <point x="347" y="521" type="line"/>
      <point x="347" y="541" type="line"/>
      <point x="213" y="541" type="line"/>
      <point x="125" y="541"/>
      <point x="47" y="498"/>
      <point x="47" y="417" type="curve"/>
      <point x="47" y="353"/>
      <point x="88" y="306"/>
      <point x="143" y="271" type="curve"/>
    </contour>
    <contour>
      <point x="335" y="711" type="line"/>
      <point x="335" y="522" type="line"/>
      <point x="357" y="522" type="line"/>
      <point x="357" y="711" type="line"/>
    </contour>
    <contour>
      <point x="481" y="700" type="line"/>
      <point x="481" y="722" type="line"/>
      <point x="-10" y="722" type="line"/>
      <point x="-10" y="700" type="line"/>
    </contour>
    <contour>
      <point x="404" y="167" type="curve"/>
      <point x="404" y="122"/>
      <point x="392" y="81"/>
      <point x="360" y="49" type="curve"/>
      <point x="375" y="35" type="line"/>
      <point x="410" y="73"/>
      <point x="426" y="117"/>
      <point x="426" y="169" type="curve"/>
      <point x="426" y="258"/>
      <point x="342" y="308"/>
      <point x="245" y="308" type="curve" smooth="yes"/>
      <point x="137" y="308"/>
      <point x="57" y="227"/>
      <point x="57" y="118" type="curve" smooth="yes"/>
      <point x="57" y="-1"/>
      <point x="160" y="-79"/>
      <point x="283" y="-79" type="curve"/>
      <point x="283" y="-61" type="line"/>
      <point x="169" y="-61"/>
      <point x="78" y="9"/>
      <point x="78" y="118" type="curve" smooth="yes"/>
      <point x="78" y="215"/>
      <point x="149" y="287"/>
      <point x="245" y="287" type="curve" smooth="yes"/>
      <point x="330" y="287"/>
      <point x="404" y="245"/>
    </contour>
  </outline>
</glyph>
<glyph name="bullet" format="1">
  <advance width="318"/>
  <unicode hex="2022"/>
  <outline>
    <contour>
      <point x="113" y="270" type="curve" smooth="yes"/>
      <point x="113" y="239"/>
      <point x="132" y="220"/>
      <point x="162" y="220" type="curve" smooth="yes"/>
      <point x="192" y="220"/>
      <point x="211" y="239"/>
      <point x="211" y="270" type="curve" smooth="yes"/>
      <point x="211" y="300"/>
      <point x="192" y="319"/>
      <point x="162" y="319" type="curve" smooth="yes"/>
      <point x="132" y="319"/>
      <point x="113" y="300"/>
    </contour>
  </outline>
</glyph>
<glyph name="fi" format="1">
  <advance width="613"/>
  <unicode hex="FB01"/>
  <outline>
    <contour>
      <point x="265" y="486" type="line"/>
      <point x="482" y="486" type="line"/>
      <point x="482" y="0" type="line"/>
      <point x="505" y="0" type="line"/>
      <point x="505" y="508" type="line"/>
      <point x="265" y="508" type="line"/>
      <point x="265" y="601" type="line" smooth="yes"/>
      <point x="265" y="717"/>
      <point x="322" y="785"/>
      <point x="418" y="785" type="curve" smooth="yes"/>
      <point x="439" y="785"/>
      <point x="460" y="782"/>
      <point x="482" y="776" type="curve"/>
      <point x="482" y="690" type="line"/>
      <point x="504" y="690" type="line"/>
      <point x="504" y="791" type="line"/>
      <point x="473" y="802"/>
      <point x="443" y="807"/>
      <point x="413" y="807" type="curve" smooth="yes"/>
      <point x="308" y="807"/>
      <point x="242" y="730"/>
      <point x="243" y="601" type="curve" smooth="yes"/>
      <point x="243" y="508" type="line"/>
      <point x="69" y="508" type="line"/>
      <point x="69" y="486" type="line"/>
      <point x="243" y="486" type="line"/>
      <point x="243" y="0" type="line"/>
      <point x="265" y="0" type="line"/>
    </contour>
  </outline>
</glyph>
<glyph name=".004" format="1">
  <advance width="618"/>
  <outline>
    <contour>
      <point x="140" y="-300" type="line"/>
      <point x="140" y="533" type="line"/>
      <point x="118" y="533" type="line"/>
      <point x="118" y="-300" type="line"/>
    </contour>
    <component base="u"/>
  </outline>
</glyph>
<glyph name="c_va.alt" format="1">
  <advance width="557"/>
  <outline>
    <contour>
      <point x="418" y="302" type="line"/>
      <point x="390" y="219"/>
      <point x="322" y="154"/>
      <point x="222" y="154" type="curve" smooth="yes"/>
      <point x="117" y="154"/>
      <point x="58" y="231"/>
      <point x="58" y="325" type="curve" smooth="yes"/>
      <point x="58" y="413"/>
      <point x="116" y="476"/>
      <point x="202" y="476" type="curve" smooth="yes"/>
      <point x="240" y="476"/>
      <point x="284" y="463"/>
      <point x="331" y="434" type="curve"/>
      <point x="337" y="453" type="line"/>
      <point x="288" y="482"/>
      <point x="242" y="495"/>
      <point x="202" y="495" type="curve" smooth="yes"/>
      <point x="104" y="495"/>
      <point x="37" y="421"/>
      <point x="37" y="327" type="curve" smooth="yes"/>
      <point x="37" y="223"/>
      <point x="102" y="133"/>
      <point x="225" y="133" type="curve" smooth="yes"/>
      <point x="335" y="133"/>
      <point x="407" y="207"/>
      <point x="435" y="302" type="curve"/>
    </contour>
    <contour>
      <point x="416" y="710" type="line"/>
      <point x="416" y="0" type="line"/>
      <point x="438" y="0" type="line"/>
      <point x="438" y="710" type="line"/>
    </contour>
    <contour>
      <point x="567" y="700" type="line"/>
      <point x="567" y="722" type="line"/>
      <point x="284" y="722" type="line"/>
      <point x="284" y="700" type="line"/>
    </contour>
    <contour>
      <point x="405.0" y="660.0" type="move" name="DVAnchor3"/>
    </contour>
  </outline>
</glyph>
<glyph name="component_1" format="1">
  <advance width="265"/>
  <outline>
    <contour>
      <point x="123" y="716" type="curve"/>
      <point x="145" y="716" type="line"/>
      <point x="145" y="843"/>
      <point x="53" y="893"/>
      <point x="-85" y="893" type="curve" smooth="yes"/>
      <point x="-212" y="893"/>
      <point x="-302" y="928"/>
      <point x="-302" y="1041" type="curve"/>
      <point x="-323" y="1041" type="line"/>
      <point x="-323" y="915"/>
      <point x="-226" y="872"/>
      <point x="-86" y="872" type="curve" smooth="yes"/>
      <point x="38" y="872"/>
      <point x="123" y="829"/>
    </contour>
  </outline>
</glyph>
<glyph name="component_6" format="1">
  <advance width="263"/>
  <outline>
    <contour>
      <point x="293" y="700" type="line"/>
      <point x="293" y="722" type="line"/>
      <point x="-10" y="722" type="line"/>
      <point x="-10" y="700" type="line"/>
    </contour>
  </outline>
</glyph>
<glyph name="ddadeva_viramadeva_ddadeva" format="1">
  <advance width="561"/>
  <outline>
    <contour>
      <point x="134.0" y="66.0" type="line"/>
      <point x="116.0" y="81.0" type="line"/>
    </contour>
    <contour>
      <point x="151.0" y="-153.0" type="curve"/>
      <point x="103.426829268" y="-121.888888889"/>
      <point x="68" y="-93"/>
      <point x="68" y="-41" type="curve"/>
      <point x="68" y="14"/>
      <point x="94.4" y="48.7419354839"/>
      <point x="134.0" y="66.0" type="curve"/>
      <point x="116.0" y="81.0" type="line"/>
      <point x="73.3913043478" y="59.4905660377"/>
      <point x="46" y="20"/>
      <point x="46" y="-39" type="curve"/>
      <point x="46" y="-102"/>
      <point x="84.387755102" y="-140.546666667"/>
      <point x="145.0" y="-175.0" type="curve"/>
      <point x="325.0" y="-120.0"/>
      <point x="486.0" y="-98.0"/>
      <point x="486.0" y="-240.0" type="curve" smooth="yes"/>
      <point x="486.0" y="-350.0"/>
      <point x="392.0" y="-399.0"/>
      <point x="271.0" y="-399.0" type="curve" smooth="yes"/>
      <point x="170.0" y="-399.0"/>
      <point x="103.0" y="-356.0"/>
      <point x="34.0" y="-282.0" type="curve"/>
      <point x="16.0" y="-295.0" type="line"/>
      <point x="90.0" y="-373.0"/>
      <point x="159.0" y="-420.0"/>
      <point x="267.0" y="-420.0" type="curve" smooth="yes"/>
      <point x="404.0" y="-420.0"/>
      <point x="507.0" y="-361.0"/>
      <point x="507.0" y="-235.0" type="curve" smooth="yes"/>
      <point x="505.0" y="-86.0"/>
      <point x="338.0" y="-96.0"/>
    </contour>
    <component base="c_dda"/>
    <contour>
      <point x="359.0" y="-113.0" type="move" name="DVAnchor0"/>
    </contour>
  </outline>
</glyph>
<glyph name="kana" format="1">
  <advance width="283"/>
  <outline>
    <contour>
      <point x="131" y="710" type="line"/>
      <point x="131" y="0" type="line"/>
      <point x="153" y="0" type="line"/>
      <point x="153" y="710" type="line"/>
    </contour>
    <component base="component_6"/>
  </outline>
</glyph>
